Coordinates
version=1
nRows=9
nColumns=24
inDegrees=yes

Units are S.I. units (second, meters, Newtons, ...)
Angles are in degrees.

endheader
time	pelvis_tilt	pelvis_list	pelvis_rotation	pelvis_tx	pelvis_ty	pelvis_tz	hip_flexion_r	hip_adduction_r	hip_rotation_r	knee_angle_r	ankle_angle_r	subtalar_angle_r	mtp_angle_r	hip_flexion_l	hip_adduction_l	hip_rotation_l	knee_angle_l	ankle_angle_l	subtalar_angle_l	mtp_angle_l	lumbar_extension	lumbar_bending	lumbar_rotation
      1.42883333	      1.30350512	     -1.56078454	    -16.27827741	      0.92282308	      0.99007591	      0.29221891	    -20.53923090	      0.69245508	     12.18734841	    -10.46169157	     11.15760279	     -7.10252274	     16.48372989	     20.74747705	     -5.16490792	    -12.50120894	      4.25791122	      5.24807511	    -10.62775536	      2.30994610	     -3.28617044	      1.16533071	     11.92166076
      1.43300000	      1.35686957	     -1.49764756	    -16.40626146	      0.92867822	      0.98963895	      0.29205956	    -20.68175741	      0.48849395	     12.12398199	    -10.88566895	     10.96500935	     -7.05415204	     16.54002565	     20.74465905	     -5.10636321	    -12.53998983	      3.71598675	      5.30691599	    -10.83755834	      2.32385246	     -3.28786957	      1.04776026	     11.97688204
      1.43716667	      1.39189281	     -1.40713483	    -16.55203446	      0.93455516	      0.98919369	      0.29189200	    -20.74423455	      0.25299292	     11.98402883	    -11.41412680	     10.86616597	     -6.76194593	     16.98793524	     20.74848589	     -5.02536855	    -12.56202351	      3.18135717	      5.28898563	    -11.06971814	      2.44300941	     -3.28915851	      0.89903708	     12.16603206
      1.44133333	      1.44236652	     -1.32792578	    -16.64424751	      0.94049187	      0.98880174	      0.29168868	    -20.88284827	      0.04806185	     11.93748500	    -11.82904643	     10.60268414	     -6.77337935	     17.02285915	     20.76144665	     -4.93687812	    -12.55729525	      2.57018046	      5.26855109	    -11.24237109	      2.45245919	     -3.30801554	      0.76291054	     12.18907465
      1.44550000	      1.49812566	     -1.22010771	    -16.74039534	      0.94650208	      0.98841969	      0.29145325	    -20.96945147	     -0.19873068	     11.72575134	    -12.34213421	     10.41194403	     -6.49669908	     17.38111745	     20.74903128	     -4.80855234	    -12.52629906	      1.99376429	      5.18623625	    -11.49829569	      2.55728487	     -3.28689336	      0.58844140	     12.38180341
      1.44966667	      1.56095317	     -1.10603131	    -16.84900215	      0.95254943	      0.98810682	      0.29124921	    -21.07081138	     -0.45119751	     11.62347550	    -12.82142716	     10.03242752	     -6.55210048	     22.68802919	     20.69377918	     -4.66638515	    -12.45948970	      1.46731572	      4.98654931	    -11.85087898	      4.12485843	     -3.27860012	      0.40304295	     12.39175364
      1.45383333	      1.61082529	     -0.96807036	    -16.94219899	      0.95864168	      0.98779144	      0.29101991	    -21.13059398	     -0.71681354	     11.47758471	    -13.35437343	      9.71819314	     -6.46025052	     22.71420810	     20.70328516	     -4.50850256	    -12.50386336	      0.83683936	      4.84899884	    -11.94797544	      4.13469374	     -3.24841250	      0.18360685	     12.46709991
      1.45800000	      1.66062976	     -0.82024476	    -17.03195488	      0.96476946	      0.98750649	      0.29076698	    -21.16559620	     -0.99278007	     11.30057074	    -13.92689519	      9.39999506	     -6.31622993	     22.77269320	     20.69529236	     -4.33121169	    -12.52926960	      0.24235112	      4.62217821	    -12.09959861	      4.15535048	     -3.20759962	     -0.03316855	     12.54824594
      1.46216667	      1.71351275	     -0.66465930	    -17.11963163	      0.97091339	      0.98726083	      0.29046837	    -21.16688872	     -1.27937782	     11.07721955	    -14.56209069	      9.11897766	     -6.08622841	     22.92875559	     20.67904753	     -4.13605765	    -12.53348144	     -0.34174159	      4.31234522	    -12.34105751	      4.20888625	     -3.17197148	     -0.24039586	     12.65000152
